<svg version="1.1" id="Layer_1" xmlns="http://www.w3.org/2000/svg" xmlns:xlink="http://www.w3.org/1999/xlink" x="0px" y="0px"
	 width="100%" viewBox="0 0 864 1024" enable-background="new 0 0 864 1024" xml:space="preserve">
<path fill="#000000" opacity="1.000000" stroke="none" 
	d="
M195.468658,1025.000000 
	C204.587402,1011.452576 211.795395,996.787476 214.298019,980.279602 
	C216.036133,968.814758 214.442764,957.064758 212.270798,946.004028 
	C206.563248,916.937927 210.363922,889.020813 218.748093,861.253540 
	C220.963455,853.916504 223.146759,846.568909 225.466858,839.264893 
	C226.995575,834.452332 227.360245,829.648438 227.346329,824.553589 
	C227.288452,803.367126 224.549576,782.355835 223.713776,761.218872 
	C223.016800,743.592957 220.251678,726.099304 217.604767,708.643616 
	C214.998016,691.452881 214.195663,674.249023 215.724533,656.864868 
	C218.515915,625.124817 217.350677,593.645264 208.254349,562.790649 
	C204.859589,551.275696 207.620239,539.979004 210.623917,528.840332 
	C214.092133,515.979065 217.076981,502.915833 221.669632,490.455505 
	C224.556702,482.622681 225.037338,474.975708 224.934753,467.002991 
	C224.913467,465.348511 224.947647,463.573273 224.387497,462.064911 
	C220.268600,450.973663 220.521011,439.441925 221.153366,427.966736 
	C221.652222,418.914276 220.353271,410.020691 219.909332,401.054718 
	C218.180115,366.130157 213.017792,331.560272 209.070343,296.865601 
	C208.329590,290.355164 206.468277,284.151001 203.012054,278.497894 
	C200.578690,274.517822 197.342239,271.562805 192.810226,270.141541 
	C189.746399,269.180725 187.131439,267.422363 184.588394,265.493652 
	C176.287994,259.198456 165.215820,262.462921 162.105896,272.591095 
	C159.865387,279.887817 158.361572,287.465546 157.172638,295.019165 
	C154.519241,311.876923 154.720093,328.822754 155.663223,345.851837 
	C156.287552,357.124664 154.873001,368.500092 155.264435,379.798615 
	C155.836197,396.303558 155.749893,412.746857 153.995728,429.170807 
	C153.789337,431.103302 154.116287,433.157135 152.308151,435.506500 
	C152.193359,433.169708 152.037888,431.457153 152.035309,429.744324 
	C151.898819,338.916504 151.801819,248.088608 151.568970,157.261032 
	C151.557755,152.892899 152.834412,151.565002 157.236542,151.569992 
	C254.731186,151.680084 352.230255,151.139572 449.718292,151.949020 
	C481.502167,152.212936 511.350128,162.104095 538.787537,178.651398 
	C552.241333,186.765244 564.642578,196.254318 575.459961,207.517731 
	C600.768250,233.869690 617.232788,264.953827 624.428833,300.978394 
	C627.821777,317.963959 628.135132,335.074677 627.109497,352.103516 
	C625.858154,372.879547 620.414001,392.877686 611.992859,412.027374 
	C602.036133,434.669250 588.153992,454.635620 570.325562,471.605927 
	C544.790466,495.912079 514.672485,512.066040 480.029816,519.290466 
	C464.716797,522.483887 449.189423,523.598145 433.524719,523.420471 
	C411.528534,523.170959 389.527374,523.385132 367.529816,523.211243 
	C363.738525,523.181213 361.913727,524.127380 362.216125,528.203430 
	C363.271515,542.428345 364.185760,556.663574 365.193573,570.892151 
	C365.627197,577.014221 365.620850,583.141602 366.154785,589.282349 
	C367.375732,603.324646 367.380554,617.468994 368.430328,631.530762 
	C370.048248,653.203674 371.238953,674.896057 372.511108,696.587708 
	C372.831146,702.044922 373.528015,707.510742 373.326447,712.973755 
	C373.018646,721.317261 378.912659,726.122375 383.698517,731.346069 
	C393.131226,741.641724 403.150848,751.397400 412.677582,761.609680 
	C424.579163,774.367676 436.721680,786.896667 448.661377,799.609680 
	C459.463898,811.112000 470.376862,822.510010 481.155579,834.031799 
	C498.634125,852.715332 516.021057,871.478699 533.900391,889.785217 
	C542.479553,898.569397 550.562988,907.835388 559.001526,916.759583 
	C578.532532,937.414490 598.296509,957.851379 617.663025,978.658630 
	C628.982300,990.820129 640.194519,1003.069702 651.968567,1014.799683 
	C654.886475,1017.706665 657.292664,1021.127380 659.967041,1024.656006 
	C505.312439,1025.000000 350.624878,1025.000000 195.468658,1025.000000 
M377.003510,482.560974 
	C376.815033,477.863739 377.234131,473.244263 378.937439,468.821655 
	C380.226196,465.475525 379.571106,462.432343 378.213257,459.198853 
	C375.594086,452.961792 369.860809,449.913422 365.257202,445.676239 
	C359.917114,440.761169 353.882874,438.945221 346.872223,441.063721 
	C339.634766,443.250793 332.584717,443.082672 325.324554,440.740082 
	C317.469910,438.205658 310.084045,441.593872 306.591644,449.012726 
	C304.832184,452.750275 303.424255,456.735840 302.473816,460.755066 
	C300.271484,470.068359 306.229401,482.218872 313.544800,488.106903 
	C321.288300,494.339478 329.867828,499.931091 333.870087,510.100494 
	C337.054840,518.192688 348.390991,520.509033 353.744171,514.492371 
	C357.766174,509.971863 362.428925,506.865723 367.847076,504.622894 
	C374.394165,501.912750 376.993500,496.795471 376.990753,490.015778 
	C376.989868,487.853363 377.001923,485.690918 377.003510,482.560974 
z"/>
<path fill="#000000" opacity="1.000000" stroke="none" 
	d="
M865.000000,1020.531372 
	C853.075439,1009.425781 841.893066,997.152527 830.688049,984.890198 
	C822.501648,975.931335 813.882324,967.369202 805.510864,958.578003 
	C786.710083,938.834839 767.800415,919.192322 749.216614,899.246460 
	C738.116760,887.333008 726.895325,875.537720 715.761841,863.662170 
	C698.716675,845.480896 681.533813,827.434631 664.401672,809.337341 
	C653.544983,797.869202 642.727112,786.362671 631.889099,774.876587 
	C614.324402,756.261780 596.886963,737.531677 579.153931,719.071228 
	C568.689514,708.177551 558.405273,697.087402 548.162659,685.979492 
	C541.546326,678.804199 534.488037,672.021606 527.543396,664.277649 
	C532.431641,661.231567 537.549866,660.422363 542.321594,658.999207 
	C563.604065,652.651367 583.720154,643.610657 603.221985,633.136475 
	C621.833191,623.140564 639.413086,611.501343 655.590271,597.936829 
	C668.551880,587.068481 681.080444,575.749268 692.252686,562.859802 
	C702.805298,550.685303 712.912964,538.279175 721.873413,524.900574 
	C744.557129,491.032349 760.429810,454.250916 769.675354,414.552063 
	C773.969238,396.114990 776.462524,377.475403 777.928589,358.609741 
	C778.640259,349.451813 778.891113,340.335297 778.674988,331.203369 
	C777.954590,300.763031 773.506042,270.894287 764.920898,241.624496 
	C757.693176,216.982788 747.833008,193.462296 735.120544,171.214478 
	C724.831665,153.208084 713.120361,136.135757 699.491272,120.382729 
	C692.087830,111.825531 684.582336,103.405609 676.460693,95.540634 
	C656.201721,75.921959 633.697937,59.270859 609.288086,45.203251 
	C581.360168,29.108105 551.636414,17.474796 520.278503,10.062227 
	C504.157745,6.251514 487.872131,3.367347 471.308929,2.276551 
	C470.666168,2.234222 470.040253,1.936244 469.203247,1.378696 
	C590.687561,1.000000 712.375122,1.000000 834.284851,1.187304 
	C832.525269,2.286798 832.755066,3.599394 833.328186,5.449824 
	C834.152710,8.111525 835.019470,10.991354 834.814331,13.698196 
	C834.152039,22.436380 839.311707,27.762882 845.156311,32.845070 
	C847.017212,34.463203 849.045532,35.085140 851.567444,34.686314 
	C856.022461,33.981762 860.520142,33.547432 865.000000,32.999996 
	C865.000000,240.687561 865.000000,448.375122 864.681274,656.451538 
	C857.720093,658.041382 850.652954,658.207275 844.546143,660.713501 
	C837.413391,663.640686 830.763977,668.134521 824.529114,672.785522 
	C807.822327,685.247986 804.578857,694.344666 813.616089,711.399841 
	C822.857666,728.840576 833.365295,745.681213 845.346252,761.489075 
	C847.101990,763.805664 849.191467,764.765686 852.221558,764.482117 
	C856.468079,764.084656 860.804016,763.386780 865.000000,765.000000 
	C865.000000,850.020874 865.000000,935.041809 865.000000,1020.531372 
M785.132141,349.934265 
	C785.519348,352.776489 786.495605,355.417694 787.987854,357.849854 
	C791.225952,363.127258 795.101624,363.049927 798.070068,357.683807 
	C801.762634,351.008667 800.413147,340.358398 795.159241,334.710175 
	C791.787354,331.085327 789.018494,331.463226 786.608765,335.868256 
	C784.317566,340.056610 785.042908,344.597992 785.132141,349.934265 
M808.885559,344.224915 
	C808.669434,341.600586 809.757751,338.575409 806.713867,336.687347 
	C803.510864,338.270294 803.528259,341.370148 803.235657,343.984802 
	C802.951355,346.525635 801.587158,350.596283 805.214233,351.105194 
	C808.368164,351.547760 808.073364,347.432434 808.885559,344.224915 
z"/>
<path fill="#000000" opacity="1.000000" stroke="none" 
	d="
M151.701492,740.000000 
	C151.699554,657.060486 151.699554,574.620972 151.699554,492.181427 
	C154.950668,499.272064 155.190964,506.763580 156.441422,514.067261 
	C159.930923,534.448425 163.000824,554.920715 161.818771,575.670776 
	C160.547119,597.993225 161.119583,620.314758 161.086868,642.636841 
	C161.075394,650.455688 161.691544,658.275024 162.002533,666.094849 
	C163.018555,691.643311 161.205139,717.035767 157.803299,742.342102 
	C156.070602,755.231689 155.315140,768.202454 155.099457,781.188782 
	C154.742630,802.674927 154.503204,824.167969 154.371582,845.651978 
	C154.219589,870.456909 155.990631,895.278503 155.656647,920.075745 
	C155.441788,936.029236 156.067978,952.071350 154.063446,967.985718 
	C153.885925,969.394897 154.229797,971.005066 151.703430,973.002075 
	C151.703430,894.873413 151.703430,817.686707 151.701492,740.000000 
z"/>
</svg>